<svg width="130" height="130" viewBox="0 0 130 130" fill="none" xmlns="http://www.w3.org/2000/svg">
<path fill-rule="evenodd" clip-rule="evenodd" d="M60.9868 102.011C75.5793 112.188 92.2459 119.614 108.76 118.142C114.825 117.601 120.44 115.34 126.202 113.089C126.708 112.891 126.96 112.318 126.761 111.813C126.564 111.308 125.991 111.055 125.487 111.253C119.9 113.436 114.463 115.655 108.587 116.178C92.3222 117.629 75.9411 110.146 61.6178 100.05C61.6661 99.9041 61.7163 99.7582 61.7666 99.6123C62.8719 96.4059 62.1705 91.7304 60.3638 86.8179C57.7431 79.6861 52.8575 72.023 48.4643 67.7903C46.4385 65.8368 44.477 64.6099 42.8752 64.352C41.5408 64.1358 40.3953 64.5005 39.511 65.5346C38.7835 66.389 38.3675 67.4777 38.2449 68.754C38.0821 70.4575 38.4479 72.5257 39.2176 74.7762C42.0653 83.1035 50.4318 94.0617 54.9677 97.578C56.3886 98.6799 57.8335 99.7608 59.3047 100.818C59.0112 101.74 58.7279 102.621 58.3802 103.433C57.8697 104.626 57.2246 105.663 56.1353 106.411C54.1256 107.791 51.716 108.026 49.2521 107.666C45.307 107.093 41.2273 105.009 38.2188 103.222C21.297 93.1734 12.9426 75.7347 8.44888 58.2387C3.9029 40.5448 3.30802 22.77 1.96353 12.286C1.89319 11.7468 1.3988 11.3639 0.860196 11.4342C0.321593 11.502 -0.0602504 11.9969 0.00807981 12.5361C1.36062 23.0774 1.97157 40.9433 6.53965 58.7284C11.16 76.7115 19.8198 94.5878 37.2139 104.918C40.4154 106.817 44.7704 109.005 48.9687 109.617C51.9371 110.047 54.829 109.698 57.2487 108.036C58.6595 107.067 59.5318 105.749 60.1909 104.21C60.4864 103.519 60.7396 102.78 60.9868 102.011ZM59.9438 98.8518C60.8763 95.9761 60.1146 91.8476 58.5149 87.4977C55.9967 80.6447 51.3181 73.2759 47.0977 69.2073C45.6828 67.845 44.3383 66.8578 43.1506 66.4489C42.2924 66.1519 41.5428 66.1884 41.0102 66.8135C40.3973 67.5324 40.1662 68.5144 40.1762 69.6605C40.1863 70.9811 40.5219 72.5049 41.0826 74.1407C43.8138 82.1268 51.8245 92.6499 56.1735 96.0204C57.4115 96.979 58.6696 97.9245 59.9438 98.8518Z" fill="url(#paint0_linear_1_412)"/>
<path fill-rule="evenodd" clip-rule="evenodd" d="M127.814 110.052C127.747 110.502 127.522 111.075 127.263 111.677C126.678 113.039 125.846 114.493 125.477 115.196C125.225 115.678 125.41 116.275 125.893 116.527C126.375 116.78 126.97 116.592 127.223 116.11C127.673 115.251 128.774 113.323 129.365 111.727C129.669 110.906 129.832 110.151 129.799 109.606C129.765 109.072 129.548 108.713 129.239 108.458C128.913 108.189 128.409 108.031 127.735 108.051C126.996 108.075 125.941 108.309 124.781 108.395C123.808 108.468 122.745 108.437 121.779 107.952C121.292 107.708 120.699 107.903 120.456 108.39C120.213 108.874 120.408 109.468 120.894 109.711C122.707 110.622 124.765 110.424 126.391 110.19C126.875 110.12 127.476 110.073 127.814 110.052Z" fill="white"/>
<defs>
<linearGradient id="paint0_linear_1_412" x1="117.739" y1="112" x2="-3.49809" y2="21.2143" gradientUnits="userSpaceOnUse">
<stop stop-color="white"/>
<stop offset="0.983459" stop-color="white" stop-opacity="0"/>
</linearGradient>
</defs>
</svg>
