<svg width="81" height="89" viewBox="0 0 81 89" fill="none" xmlns="http://www.w3.org/2000/svg">
<path fill-rule="evenodd" clip-rule="evenodd" d="M47.6595 49.8674C48.8518 49.5303 50.017 49.051 51.1487 48.4135C55.1203 46.177 56.5507 40.5639 55.8028 35.1978C55.0555 29.8339 52.144 24.8276 47.8769 23.7409C45.437 23.1191 43.565 23.4448 42.154 24.3441C40.7508 25.2391 39.7878 26.7286 39.2153 28.5535C37.6219 33.6408 39.099 41.4067 41.1832 44.5716C42.1481 46.0351 43.2124 47.4323 44.3586 48.7637C39.3026 49.1815 33.8621 47.149 28.5814 43.9059C17.1045 36.8577 6.38708 24.0199 1.75177 16.7067C1.50275 16.3138 0.980938 16.1984 0.585466 16.4474C0.189993 16.6963 0.0706293 17.2165 0.319655 17.6094C5.04682 25.0674 15.9851 38.1518 27.6895 45.3391C33.7352 49.0525 39.9899 51.1769 45.7289 50.2879C54.7862 59.9176 68.2255 66.2178 79.5684 71.6435C79.9875 71.8457 80.4949 71.668 80.6987 71.2483C80.9004 70.8292 80.7258 70.3261 80.3047 70.1244C69.4256 64.9197 56.5431 58.9476 47.6595 49.8674ZM46.3445 48.467C47.7062 48.1681 49.0368 47.6707 50.32 46.9464C53.7576 45.0114 54.7754 40.0784 54.1278 35.4333C53.7298 32.5863 52.6899 29.8277 51.0958 27.873C50.0942 26.6437 48.8759 25.7363 47.4521 25.3744C45.5842 24.8984 44.1429 25.0735 43.0648 25.7626C41.9786 26.4539 41.2739 27.6369 40.8323 29.0506C39.379 33.6869 40.7024 40.7637 42.5999 43.6443C43.7186 45.3437 44.9752 46.9469 46.3445 48.467Z" fill="url(#paint0_linear_1_417)"/>
<defs>
<linearGradient id="paint0_linear_1_417" x1="71.3955" y1="35.7394" x2="9.57627" y2="52.3038" gradientUnits="userSpaceOnUse">
<stop stop-color="white"/>
<stop offset="1" stop-color="white" stop-opacity="0"/>
</linearGradient>
</defs>
</svg>
